<mxfile host="Electron" modified="2023-06-01T08:45:54.544Z" agent="Mozilla/5.0 (Macintosh; Intel Mac OS X 10_15_7) AppleWebKit/537.36 (KHTML, like Gecko) draw.io/21.2.8 Chrome/112.0.5615.165 Electron/24.2.0 Safari/537.36" etag="YXndK6LFzpKpEMb16Hv1" version="21.2.8" type="device">
  <diagram id="fMtyORBjokjRVTjzNCm1" name="Page-1">
    <mxGraphModel dx="1114" dy="894" grid="1" gridSize="10" guides="1" tooltips="1" connect="1" arrows="1" fold="1" page="1" pageScale="1" pageWidth="1169" pageHeight="827" math="0" shadow="0">
      <root>
        <mxCell id="0" />
        <mxCell id="1" parent="0" />
        <mxCell id="5cPal_bOG6dwH_wdtkmH-6" style="rounded=0;orthogonalLoop=1;jettySize=auto;html=1;exitX=1;exitY=0.5;exitDx=0;exitDy=0;entryX=0;entryY=0.5;entryDx=0;entryDy=0;fillColor=#fff2cc;strokeColor=#d6b656;" parent="1" source="5cPal_bOG6dwH_wdtkmH-1" target="5cPal_bOG6dwH_wdtkmH-3" edge="1">
          <mxGeometry relative="1" as="geometry" />
        </mxCell>
        <mxCell id="5cPal_bOG6dwH_wdtkmH-7" style="edgeStyle=none;rounded=0;orthogonalLoop=1;jettySize=auto;html=1;exitX=1;exitY=0.5;exitDx=0;exitDy=0;entryX=0;entryY=0.5;entryDx=0;entryDy=0;fillColor=#fff2cc;strokeColor=#d6b656;" parent="1" source="5cPal_bOG6dwH_wdtkmH-1" target="5cPal_bOG6dwH_wdtkmH-4" edge="1">
          <mxGeometry relative="1" as="geometry" />
        </mxCell>
        <mxCell id="5cPal_bOG6dwH_wdtkmH-8" style="edgeStyle=none;rounded=0;orthogonalLoop=1;jettySize=auto;html=1;exitX=1;exitY=0.5;exitDx=0;exitDy=0;entryX=0;entryY=0.5;entryDx=0;entryDy=0;fillColor=#fff2cc;strokeColor=#d6b656;" parent="1" source="5cPal_bOG6dwH_wdtkmH-1" target="5cPal_bOG6dwH_wdtkmH-5" edge="1">
          <mxGeometry relative="1" as="geometry" />
        </mxCell>
        <mxCell id="5cPal_bOG6dwH_wdtkmH-1" value="Consumer" style="rounded=0;whiteSpace=wrap;html=1;" parent="1" vertex="1">
          <mxGeometry x="280" y="384" width="80" height="60" as="geometry" />
        </mxCell>
        <mxCell id="eIp0lx7JxQ-zRxrTTp2n-2" value="" style="edgeStyle=orthogonalEdgeStyle;rounded=0;orthogonalLoop=1;jettySize=auto;html=1;fillColor=#fff2cc;strokeColor=#d6b656;" parent="1" source="5cPal_bOG6dwH_wdtkmH-2" target="eIp0lx7JxQ-zRxrTTp2n-1" edge="1">
          <mxGeometry relative="1" as="geometry" />
        </mxCell>
        <mxCell id="5cPal_bOG6dwH_wdtkmH-2" value="Merge&lt;br&gt;Channels" style="rounded=0;whiteSpace=wrap;html=1;" parent="1" vertex="1">
          <mxGeometry x="680" y="384" width="77" height="60" as="geometry" />
        </mxCell>
        <mxCell id="5cPal_bOG6dwH_wdtkmH-9" style="edgeStyle=none;rounded=0;orthogonalLoop=1;jettySize=auto;html=1;exitX=1;exitY=0.5;exitDx=0;exitDy=0;entryX=0;entryY=0.5;entryDx=0;entryDy=0;fillColor=#fff2cc;strokeColor=#d6b656;" parent="1" source="5cPal_bOG6dwH_wdtkmH-3" target="5cPal_bOG6dwH_wdtkmH-2" edge="1">
          <mxGeometry relative="1" as="geometry" />
        </mxCell>
        <mxCell id="5cPal_bOG6dwH_wdtkmH-19" style="edgeStyle=none;rounded=0;orthogonalLoop=1;jettySize=auto;html=1;exitX=1;exitY=0;exitDx=0;exitDy=0;entryX=0;entryY=0.5;entryDx=0;entryDy=0;entryPerimeter=0;fillColor=#d5e8d4;strokeColor=#82b366;" parent="1" source="5cPal_bOG6dwH_wdtkmH-3" target="miQBMZpWfD7dxhKy1b5--1" edge="1">
          <mxGeometry relative="1" as="geometry">
            <mxPoint x="840" y="120" as="targetPoint" />
          </mxGeometry>
        </mxCell>
        <mxCell id="5cPal_bOG6dwH_wdtkmH-3" value="Indexer 1" style="rounded=0;whiteSpace=wrap;html=1;" parent="1" vertex="1">
          <mxGeometry x="480" y="346.5" width="120" height="60" as="geometry" />
        </mxCell>
        <mxCell id="5cPal_bOG6dwH_wdtkmH-10" style="edgeStyle=none;rounded=0;orthogonalLoop=1;jettySize=auto;html=1;exitX=1;exitY=0.5;exitDx=0;exitDy=0;fillColor=#fff2cc;strokeColor=#d6b656;" parent="1" source="5cPal_bOG6dwH_wdtkmH-4" target="5cPal_bOG6dwH_wdtkmH-2" edge="1">
          <mxGeometry relative="1" as="geometry" />
        </mxCell>
        <mxCell id="5cPal_bOG6dwH_wdtkmH-20" style="edgeStyle=none;rounded=0;orthogonalLoop=1;jettySize=auto;html=1;exitX=1;exitY=0;exitDx=0;exitDy=0;entryX=0;entryY=0.5;entryDx=0;entryDy=0;entryPerimeter=0;fillColor=#d5e8d4;strokeColor=#82b366;" parent="1" source="5cPal_bOG6dwH_wdtkmH-4" target="miQBMZpWfD7dxhKy1b5--1" edge="1">
          <mxGeometry relative="1" as="geometry">
            <mxPoint x="852" y="159" as="targetPoint" />
          </mxGeometry>
        </mxCell>
        <mxCell id="5cPal_bOG6dwH_wdtkmH-4" value="Indexer ..." style="rounded=0;whiteSpace=wrap;html=1;" parent="1" vertex="1">
          <mxGeometry x="490" y="390" width="120" height="60" as="geometry" />
        </mxCell>
        <mxCell id="5cPal_bOG6dwH_wdtkmH-11" style="edgeStyle=none;rounded=0;orthogonalLoop=1;jettySize=auto;html=1;exitX=1;exitY=0.5;exitDx=0;exitDy=0;entryX=0;entryY=0.5;entryDx=0;entryDy=0;fillColor=#fff2cc;strokeColor=#d6b656;" parent="1" source="5cPal_bOG6dwH_wdtkmH-5" target="5cPal_bOG6dwH_wdtkmH-2" edge="1">
          <mxGeometry relative="1" as="geometry" />
        </mxCell>
        <mxCell id="5cPal_bOG6dwH_wdtkmH-21" style="edgeStyle=none;rounded=0;orthogonalLoop=1;jettySize=auto;html=1;exitX=1;exitY=0;exitDx=0;exitDy=0;entryX=0;entryY=0.5;entryDx=0;entryDy=0;entryPerimeter=0;fillColor=#d5e8d4;strokeColor=#82b366;" parent="1" source="5cPal_bOG6dwH_wdtkmH-5" target="miQBMZpWfD7dxhKy1b5--1" edge="1">
          <mxGeometry relative="1" as="geometry">
            <mxPoint x="863" y="198" as="targetPoint" />
          </mxGeometry>
        </mxCell>
        <mxCell id="5cPal_bOG6dwH_wdtkmH-5" value="Indexer N" style="rounded=0;whiteSpace=wrap;html=1;" parent="1" vertex="1">
          <mxGeometry x="500" y="430" width="120" height="60" as="geometry" />
        </mxCell>
        <mxCell id="5cPal_bOG6dwH_wdtkmH-14" value="SPI" style="edgeStyle=none;rounded=0;orthogonalLoop=1;jettySize=auto;html=1;exitX=0.5;exitY=0;exitDx=0;exitDy=0;exitPerimeter=0;" parent="1" source="5cPal_bOG6dwH_wdtkmH-12" target="5cPal_bOG6dwH_wdtkmH-1" edge="1">
          <mxGeometry relative="1" as="geometry" />
        </mxCell>
        <mxCell id="5cPal_bOG6dwH_wdtkmH-12" value="Kafka" style="shape=cylinder3;whiteSpace=wrap;html=1;boundedLbl=1;backgroundOutline=1;size=15;direction=south;" parent="1" vertex="1">
          <mxGeometry x="100" y="384" width="100" height="60" as="geometry" />
        </mxCell>
        <mxCell id="5cPal_bOG6dwH_wdtkmH-13" value="Kafka" style="shape=cylinder3;whiteSpace=wrap;html=1;boundedLbl=1;backgroundOutline=1;size=15;direction=south;" parent="1" vertex="1">
          <mxGeometry x="1000" y="384" width="100" height="60" as="geometry" />
        </mxCell>
        <mxCell id="eIp0lx7JxQ-zRxrTTp2n-3" value="" style="edgeStyle=orthogonalEdgeStyle;rounded=0;orthogonalLoop=1;jettySize=auto;html=1;" parent="1" source="eIp0lx7JxQ-zRxrTTp2n-1" target="5cPal_bOG6dwH_wdtkmH-13" edge="1">
          <mxGeometry relative="1" as="geometry" />
        </mxCell>
        <mxCell id="NMqaRBnHtQbeKu7vNVUJ-1" value="Failed Indexing&lt;br&gt;SPI" style="edgeLabel;html=1;align=center;verticalAlign=middle;resizable=0;points=[];" vertex="1" connectable="0" parent="eIp0lx7JxQ-zRxrTTp2n-3">
          <mxGeometry x="-0.0364" relative="1" as="geometry">
            <mxPoint as="offset" />
          </mxGeometry>
        </mxCell>
        <mxCell id="eIp0lx7JxQ-zRxrTTp2n-1" value="Producer" style="rounded=0;whiteSpace=wrap;html=1;" parent="1" vertex="1">
          <mxGeometry x="800" y="384" width="90" height="60" as="geometry" />
        </mxCell>
        <mxCell id="miQBMZpWfD7dxhKy1b5--1" value="Elasticsearch&lt;br&gt;Cluster" style="shape=cylinder3;whiteSpace=wrap;html=1;boundedLbl=1;backgroundOutline=1;size=15;" parent="1" vertex="1">
          <mxGeometry x="730" y="210" width="120" height="100" as="geometry" />
        </mxCell>
        <mxCell id="miQBMZpWfD7dxhKy1b5--2" value="" style="endArrow=classic;html=1;rounded=0;" parent="1" edge="1">
          <mxGeometry width="50" height="50" relative="1" as="geometry">
            <mxPoint x="100" y="270" as="sourcePoint" />
            <mxPoint x="170" y="270" as="targetPoint" />
          </mxGeometry>
        </mxCell>
        <mxCell id="miQBMZpWfD7dxhKy1b5--3" value="" style="endArrow=classic;html=1;rounded=0;fillColor=#d5e8d4;strokeColor=#82b366;" parent="1" edge="1">
          <mxGeometry width="50" height="50" relative="1" as="geometry">
            <mxPoint x="100" y="309" as="sourcePoint" />
            <mxPoint x="170" y="309" as="targetPoint" />
          </mxGeometry>
        </mxCell>
        <mxCell id="miQBMZpWfD7dxhKy1b5--4" value="TCP" style="text;html=1;strokeColor=none;fillColor=none;align=center;verticalAlign=middle;whiteSpace=wrap;rounded=0;" parent="1" vertex="1">
          <mxGeometry x="190" y="250" width="60" height="30" as="geometry" />
        </mxCell>
        <mxCell id="miQBMZpWfD7dxhKy1b5--5" value="HTTP" style="text;html=1;strokeColor=none;fillColor=none;align=center;verticalAlign=middle;whiteSpace=wrap;rounded=0;" parent="1" vertex="1">
          <mxGeometry x="190" y="290" width="60" height="30" as="geometry" />
        </mxCell>
        <mxCell id="miQBMZpWfD7dxhKy1b5--6" value="Go Channel" style="text;html=1;strokeColor=none;fillColor=none;align=center;verticalAlign=middle;whiteSpace=wrap;rounded=0;" parent="1" vertex="1">
          <mxGeometry x="190" y="330" width="60" height="30" as="geometry" />
        </mxCell>
        <mxCell id="miQBMZpWfD7dxhKy1b5--7" value="" style="endArrow=classic;html=1;rounded=0;fillColor=#fff2cc;strokeColor=#d6b656;" parent="1" edge="1">
          <mxGeometry width="50" height="50" relative="1" as="geometry">
            <mxPoint x="100" y="346.5" as="sourcePoint" />
            <mxPoint x="170" y="346.5" as="targetPoint" />
          </mxGeometry>
        </mxCell>
      </root>
    </mxGraphModel>
  </diagram>
</mxfile>
